<svg width="1024" height="1024" version="1.1" xmlns="http://www.w3.org/2000/svg" desc="Created with imagetracer.js version 1.2.6" ><path fill="rgb(13,121,86)" stroke="rgb(13,121,86)" stroke-width="1" opacity="0.9529411764705882" d="M 243 294 L 324.5 294 L 325.5 295 L 346.5 297 L 366.5 302 Q 419.7 318.8 453 355.5 Q 485.2 391.7 511 433 Q 513.7 434.1 513 431.5 L 554 375.5 L 582.5 344 Q 612.7 315.7 657.5 302 L 678.5 297 L 690.5 296 L 691.5 295 L 700.5 295 L 701.5 294 L 781 294 L 781 346 L 706.5 346 L 705.5 347 L 690.5 348 L 669.5 353 L 649.5 361 Q 622.6 374.6 604 396.5 Q 571.6 436.6 543 480.5 L 499 553.5 L 486 577.5 L 486 580.5 L 511 626 L 514 624.5 Q 545.3 564.3 581 508.5 L 626 445.5 L 651.5 418 Q 670.2 402.2 699.5 397 L 707.5 397 L 708.5 396 L 781 396 L 781 729.5 L 780.5 730 L 677.5 730 L 662.5 726 L 645 715 L 635 702.5 L 631 694.5 L 627 680.5 L 626.5 536 L 593 589.5 L 513 730 Q 510.3 731.1 511 728.5 L 503 716.5 L 441 606.5 L 409 553.5 L 397.5 537 L 397 680.5 Q 392.6 702.6 378.5 715 Q 366.9 725.9 348.5 730 L 243.5 730 L 242 728.5 L 242 461.5 L 243 460.5 L 243 396 L 316.5 396 L 338.5 400 Q 371 411 390 435.5 Q 424.9 478.6 454.5 527 L 481 482.5 L 481 480.5 L 438 419.5 L 417 393.5 L 407.5 384 L 383.5 366 Q 363.2 354.8 337.5 349 L 326.5 348 L 325.5 347 L 316.5 347 L 315.5 346 L 243 346 L 243 294 Z M 295 449 L 295 678 L 329 678 L 337 675 Q 343 671 345 662 L 345 491 L 341 474 L 333 462 Q 326 454 315 450 L 295 449 Z M 713 449 Q 701 452 694 459 Q 686 465 682 476 L 679 489 L 679 662 L 681 668 L 685 673 L 693 677 L 698 678 L 729 678 L 729 450 L 729 449 L 713 449 Z " /><path fill="rgb(0,0,0)" stroke="rgb(0,0,0)" stroke-width="1" opacity="0" d="M 0 0 L 1024 0 L 1024 1024 L 0 1024 L 0 0 Z M 243 294 L 243 346 L 316 346 L 317 347 L 326 347 L 327 348 L 338 349 Q 363 355 384 366 L 408 384 L 417 394 L 438 420 L 481 481 L 481 483 L 455 527 Q 425 479 390 436 Q 371 411 339 400 L 317 396 L 243 396 L 243 461 L 242 462 L 242 729 L 244 730 L 349 730 Q 367 726 379 715 Q 393 703 397 681 L 398 537 L 409 554 L 441 607 L 503 717 L 511 729 Q 510 731 513 730 L 593 590 L 627 536 L 627 681 L 631 695 L 635 703 L 645 715 L 663 726 L 678 730 L 781 730 L 781 730 L 781 396 L 709 396 L 708 397 L 700 397 Q 670 402 652 418 L 626 446 L 581 509 Q 545 564 514 625 L 511 626 L 486 581 L 486 578 L 499 554 L 543 481 Q 572 437 604 397 Q 623 375 650 361 L 670 353 L 691 348 L 706 347 L 707 346 L 781 346 L 781 294 L 702 294 L 701 295 L 692 295 L 691 296 L 679 297 L 658 302 Q 613 316 583 344 L 554 376 L 513 432 Q 514 434 511 433 Q 485 392 453 356 Q 420 319 367 302 L 347 297 L 326 295 L 325 294 L 243 294 Z " /><path fill="rgb(0,0,0)" stroke="rgb(0,0,0)" stroke-width="1" opacity="0" d="M 295 449 L 314.5 450 Q 325.8 453.7 333 461.5 L 341 473.5 L 345 490.5 L 345 661.5 Q 343.3 670.8 336.5 675 L 328.5 678 L 295 678 L 295 449 Z " /><path fill="rgb(0,0,0)" stroke="rgb(0,0,0)" stroke-width="1" opacity="0" d="M 712.5 449 L 728.5 449 L 729 449.5 L 729 678 L 697.5 678 L 692.5 677 L 685 673 L 681 667.5 L 679 661.5 L 679 488.5 L 682 475.5 Q 685.9 465.4 693.5 459 Q 701.2 452.2 712.5 449 Z " /></svg>